#!OML:ASF F:\VICON\USERDATA\INSTALL\rory3\rory3.ASF
:FULLY-SPECIFIED
:DEGREES
522
root 0.829148 14.8083 10.9628 -158.727 -7.05665 -170.625
lowerback -0.47701 2.21339 18.4869
upperback -4.6608 2.59382 4.13656
thorax -4.10196 0.302495 -5.8768
lowerneck -23.2429 -0.445315 -3.62058
upperneck 22.4002 0.772961 -1.44306
head 11.1094 -0.28009 0.171269
rclavicle -3.37934e-015 -3.81667e-014
rhumerus -25.6355 -10.3379 -42.6111
rradius 20.7645
rwrist 8.59273
rhand 1.21345 9.00761
rfingers 7.12502
rthumb 26.7521 -19.1209
lclavicle -3.37934e-015 -3.81667e-014
lhumerus -33.3176 -1.52689 39.8035
lradius 30.7229
lwrist 14.2106
lhand 9.90563 20.1622
lfingers 7.12502
lthumb 35.0368 46.7097
rfemur -48.9469 10.6309 397.663
rtibia 66.6828
rfoot -41.5362 -25.9171
rtoes 14.4468
lfemur -61.968 3.64101 -4.51838
ltibia 91.7785
lfoot -25.6363 25.5882
ltoes 16.028
523
root 0.811354 14.8061 10.8421 -159.059 -5.45891 -170.788
lowerback 1.12043 2.43966 17.8097
upperback -4.44232 3.27178 4.1681
thorax -4.64606 0.648163 -5.54863
lowerneck -23.6514 -0.412828 -3.75675
upperneck 22.3039 0.982554 -1.75886
head 11.1513 -0.236745 0.111659
rclavicle -2.26615e-014 5.08889e-014
rhumerus -23.9511 -5.36299 -46.5618
rradius 23.2365
rwrist 4.94513
rhand 1.05988 10.8674
rfingers 7.12502
rthumb 26.6052 -17.2835
lclavicle -2.26615e-014 5.08889e-014
lhumerus -36.1306 0.407216 41.2701
lradius 30.4106
lwrist 16.724
lhand 11.113 20.1797
lfingers 7.12502
lthumb 36.1812 46.4515
rfemur -47.5718 9.1686 397.624
rtibia 66.4067
rfoot -41.13 -24.3776
rtoes 12.1863
lfemur -63.6929 3.29278 -5.91637
ltibia 92.2233
lfoot -26.1343 25.4919
ltoes 15.1801
524
root 0.819076 14.8252 10.6928 -159.503 -3.62059 -170.796
lowerback 2.51361 2.8031 16.802
upperback -4.18572 4.03309 4.3061
thorax -5.0521 1.05831 -4.94834
lowerneck -24.1318 -0.386292 -4.13283
upperneck 22.5774 1.20641 -1.83414
head 11.343 -0.193225 0.179842
rclavicle -5.1684e-015 4.77083e-015
rhumerus -22.5992 -0.353235 -50.0741
rradius 26.2791
rwrist 1.26302
rhand 1.01445 11.3291
rfingers 7.12502
rthumb 26.5617 -16.8284
lclavicle -5.1684e-015 4.77083e-015
lhumerus -38.6542 2.7641 42.3955
lradius 29.6732
lwrist 16.7355
lhand 12.6208 19.4444
lfingers 7.12502
lthumb 37.6077 45.3493
rfemur -45.801 9.21435 397.5
rtibia 65.8038
rfoot -41.1431 -23.7735
rtoes 10.3319
lfemur -64.9246 3.45642 -7.10758
ltibia 92.1405
lfoot -27.662 25.0395
ltoes 15.0649
525
root 0.808579 14.8449 10.5432 -159.652 -2.26539 -170.519
lowerback 3.33018 3.11394 16.4114
upperback -3.97554 4.58153 4.46229
thorax -5.21215 1.34125 -4.6358
lowerneck -24.5542 -0.334211 -4.35251
upperneck 22.7307 1.42709 -1.9687
head 11.4798 -0.141338 0.201239
rclavicle -1.43125e-014 -9.22361e-014
rhumerus -21.2788 4.20617 -53.192
rradius 29.6175
rwrist -2.253
rhand 1.336 11.0518
rfingers 7.12502
rthumb 26.8694 -17.0587
lclavicle -1.43125e-014 -9.22361e-014
lhumerus -41.1468 5.80797 42.73
lradius 28.7622
lwrist 14.9144
lhand 14.7905 17.5745
lfingers 7.12502
lthumb 39.6545 42.9038
rfemur -44.3264 9.94802 397.49
rtibia 65.0364
rfoot -41.3872 -23.7239
rtoes 9.04841
lfemur -66.7332 3.33462 -7.94947
ltibia 91.8691
lfoot -29.3316 25.2202
ltoes 15.6442
526
root 0.792163 14.8525 10.3972 -159.511 -1.37148 -170.021
lowerback 3.62503 2.22552 16.4784
upperback -3.66951 5.08117 4.57764
thorax -5.15538 2.3134 -4.67614
lowerneck -25.0251 -0.202526 -4.15362
upperneck 22.6272 1.64476 -2.20058
head 11.5306 -0.0522684 0.119996
rclavicle 3.93594e-014 4.92986e-014
rhumerus -19.7584 8.399 -56.255
rradius 32.9384
rwrist -5.85158
rhand 1.45829 10.8555
rfingers 7.12502
rthumb 26.9864 -17.237
lclavicle 3.93594e-014 4.92986e-014
lhumerus -43.4768 8.7883 42.4729
lradius 27.7467
lwrist 12.9003
lhand 16.9844 15.6095
lfingers 7.12502
lthumb 41.7162 40.2939
rfemur -43.1726 11.2889 397.649
rtibia 64.1377
rfoot -41.6363 -24.1788
rtoes 8.7768
lfemur -69.1244 2.9813 -8.41194
ltibia 91.4893
lfoot -30.8263 25.9996
ltoes 16.5273
527
root 0.771427 14.867 10.2395 -159.108 -0.914863 -169.184
lowerback 4.35197 2.21341 17.103
upperback -4.18716 5.40453 4.62275
thorax -6.06445 2.37381 -5.04654
lowerneck -25.1089 0.11593 -3.6922
upperneck 23.0673 1.97761 -2.42064
head 11.718 0.0869589 0.0158972
rclavicle 5.1684e-015 -9.54166e-015
rhumerus -19.2885 12.9936 -59.3883
rradius 36.4552
rwrist -9.60373
rhand 1.15809 10.2523
rfingers 7.12502
rthumb 26.6991 -17.8843
lclavicle 5.1684e-015 -9.54166e-015
lhumerus -46.568 9.95224 42.2532
lradius 27.0602
lwrist 12.3285
lhand 19.0081 14.289
lfingers 7.12502
lthumb 43.61 38.3158
rfemur -42.1805 12.4189 398.227
rtibia 63.0557
rfoot -41.7192 -24.7156
rtoes 8.42119
lfemur -71.6803 2.53964 -8.31305
ltibia 90.9154
lfoot -32.6588 26.3308
ltoes 17.6197
528
root 0.742004 14.8988 10.065 -158.376 -0.533312 -168.361
lowerback 4.50264 2.31089 17.9593
upperback -4.69531 5.76569 4.55279
thorax -6.59893 2.46323 -5.62488
lowerneck -25.381 0.400007 -3.32309
upperneck 23.5676 2.28229 -2.5239
head 11.9658 0.21981 -0.0337913
rclavicle -5.56597e-015 -4.13472e-014
rhumerus -18.9152 17.174 -62.319
rradius 39.9316
rwrist -13.3977
rhand 0.314526 9.85275
rfingers 7.12502
rthumb 25.8916 -18.4044
lclavicle -5.56597e-015 -4.13472e-014
lhumerus -49.4024 10.1753 42.6254
lradius 26.9571
lwrist 13.9076
lhand 20.8537 13.8842
lfingers 7.12502
lthumb 45.3295 37.2528
rfemur -41.3596 13.1983 398.727
rtibia 61.7735
rfoot -41.7371 -24.7978
rtoes 7.9368
lfemur -74.2652 2.05513 -8.11782
ltibia 89.9959
lfoot -34.6205 26.299
ltoes 19.2453
529
root 0.714007 14.9369 9.88019 -157.264 0.345147 -167.793
lowerback 4.12538 2.64314 18.5067
upperback -5.3833 6.31556 4.37308
thorax -6.98746 2.65639 -6.13364
lowerneck -24.8085 0.552669 -3.37222
upperneck 23.7762 2.46111 -2.54085
head 11.9371 0.276867 -0.00563382
rclavicle 2.62396e-014 -6.36111e-015
rhumerus -19.2818 21.209 -65.0997
rradius 43.7934
rwrist -17.1896
rhand -0.605017 9.65409
rfingers 7.12502
rthumb 25.0107 -18.7287
lclavicle 2.62396e-014 -6.36111e-015
lhumerus -52.4391 9.81659 43.2531
lradius 27.2926
lwrist 16.8988
lhand 22.1728 13.8881
lfingers 7.12502
lthumb 46.5536 36.7485
rfemur -40.7776 14.3776 398.695
rtibia 60.2759
rfoot -41.5569 -24.7463
rtoes 7.61402
lfemur -76.9247 1.90624 -8.21317
ltibia 88.6272
lfoot -35.9455 26.8686
ltoes 20.4128
530
root 0.696597 15.0181 9.68257 -155.911 1.69558 -167.671
lowerback 3.67365 3.30916 18.2495
upperback -5.92615 7.12311 3.95989
thorax -7.10925 3.01431 -6.46092
lowerneck -25.586 0.435116 -3.39426
upperneck 24.3364 2.35767 -2.52996
head 12.3057 0.20467 -0.0172036
rclavicle -5.4467e-014 -1.11319e-014
rhumerus -19.6398 23.962 -67.5353
rradius 47.7322
rwrist -20.4612
rhand -1.22391 9.57165
rfingers 7.12502
rthumb 24.4176 -18.8924
lclavicle -5.4467e-014 -1.11319e-014
lhumerus -54.4616 9.91796 43.8155
lradius 27.4129
lwrist 19.4534
lhand 22.9942 14.4726
lfingers 7.12502
lthumb 47.3135 36.9995
rfemur -40.2241 15.8598 397.945
rtibia 58.414
rfoot -41.1542 -24.6885
rtoes 7.50522
lfemur -79.1452 1.99858 -8.73026
ltibia 86.5239
lfoot -36.6726 27.5838
ltoes 21.2652
531
root 0.682244 15.1662 9.47134 -154.9 2.9133 -168.225
lowerback 3.22274 3.86061 17.5314
upperback -6.33057 7.66127 3.37656
thorax -7.13839 3.25723 -6.69894
lowerneck -26.1093 0.333389 -3.74708
upperneck 24.6186 2.31982 -2.25629
head 12.5102 0.181472 0.138925
rclavicle -5.20816e-014 -4.37326e-014
rhumerus -19.9828 26.2347 -69.7784
rradius 51.5348
rwrist -23.2274
rhand -1.62423 9.68262
rfingers 7.12502
rthumb 24.0338 -18.8326
lclavicle -5.20816e-014 -4.37326e-014
lhumerus -56.2545 10.1079 44.3275
lradius 27.6147
lwrist 21.4657
lhand 23.8378 15.8563
lfingers 7.12502
lthumb 48.0921 38.0261
rfemur -39.1322 16.6548 396.579
rtibia 56.0645
rfoot -40.7852 -24.2343
rtoes 7.33968
lfemur -80.3344 1.62232 -9.65318
ltibia 83.5919
lfoot -36.5136 27.6894
ltoes 22.4872
532
root 0.671347 15.3257 9.25974 -154.284 3.91543 -169.218
lowerback 2.98169 4.29302 16.5509
upperback -6.65456 8.01894 2.64597
thorax -7.24026 3.40795 -6.96046
lowerneck -26.2699 0.161062 -4.32868
upperneck 24.6335 2.17482 -1.7161
head 12.5327 0.14193 0.417357
rclavicle 1.78906e-014 5.24792e-014
rhumerus -20.4372 27.9767 -71.8915
rradius 55.4518
rwrist -25.6047
rhand -1.48165 9.83156
rfingers 7.12502
rthumb 24.1705 -18.6655
lclavicle 1.78906e-014 5.24792e-014
lhumerus -57.9408 9.6483 45.269
lradius 28.3729
lwrist 23.8299
lhand 25.0735 17.1365
lfingers 7.12502
lthumb 49.2287 38.755
rfemur -37.6455 16.8036 394.962
rtibia 53.4793
rfoot -40.5179 -23.4629
rtoes 7.19037
lfemur -80.9427 0.882844 -10.7111
ltibia 80.3334
lfoot -35.247 27.2853
ltoes 22.5442
533
root 0.663435 15.4957 9.03414 -154.292 6.16548 -170.449
lowerback 3.42793 4.99656 14.7966
upperback -6.80579 8.71935 1.73273
thorax -7.5156 3.73577 -7.07828
lowerneck -25.154 0.0253046 -4.87102
upperneck 23.7304 1.94081 -1.10008
head 11.9511 0.119386 0.697571
rclavicle -7.21588e-014 -5.56597e-014
rhumerus -21.1197 29.2953 -73.954
rradius 59.6026
rwrist -27.9644
rhand -0.0102347 9.7076
rfingers 7.12502
rthumb 25.5806 -18.5946
lclavicle -7.21588e-014 -5.56597e-014
lhumerus -59.6338 8.9358 46.1762
lradius 29.3741
lwrist 26.1631
lhand 26.9535 17.7009
lfingers 7.12502
lthumb 50.9483 38.4111
rfemur -35.3109 17.652 392.792
rtibia 50.6299
rfoot -39.8229 -22.9103
rtoes 6.38091
lfemur -80.3029 0.894645 -12.2402
ltibia 76.8812
lfoot -33.7167 27.2224
ltoes 18.8816
534
root 0.661488 15.6223 8.816 -152.877 6.81616 -171.21
lowerback 1.9236 5.4628 13.9512
upperback -7.32401 9.01733 0.927771
thorax -7.11104 3.93228 -7.32977
lowerneck -25.6421 -0.308415 -4.91031
upperneck 23.992 1.42788 -0.719266
head 12.1509 -0.0619746 0.762424
rclavicle 1.78906e-015 -5.80451e-014
rhumerus -21.7951 30.1939 -75.9531
rradius 63.8381
rwrist -30.3471
rhand 2.18485 9.20505
rfingers 7.12502
rthumb 27.6814 -18.7779
lclavicle 1.78906e-015 -5.80451e-014
lhumerus -61.0393 8.16745 46.9164
lradius 30.2285
lwrist 28.1879
lhand 29.2898 17.9146
lfingers 7.12502
lthumb 53.0673 37.3642
rfemur -34.7079 17.6797 391.324
rtibia 47.8747
rfoot -38.8701 -22.9569
rtoes 4.53823
lfemur -81.8749 0.468754 -12.8521
ltibia 73.6832
lfoot -30.0741 27.9007
ltoes 10.0282
535
root 0.655601 15.7659 8.56381 -152.682 9.04596 -171.849
lowerback 1.74653 6.26687 12.7888
upperback -7.60153 9.88651 -0.0541083
thorax -7.08717 4.37033 -7.74569
lowerneck -24.9915 -0.632552 -4.34002
upperneck 23.5447 0.721252 -0.777452
head 11.8692 -0.309783 0.524407
rclavicle -1.35372e-013 -7.95139e-014
rhumerus -22.8338 30.8529 -78.1634
rradius 67.9964
rwrist -32.7298
rhand 3.8994 8.50904
rfingers 7.12502
rthumb 29.3197 -19.1993
lclavicle -1.35372e-013 -7.95139e-014
lhumerus -62.4651 6.55672 48.026
lradius 31.4828
lwrist 30.6525
lhand 31.3526 18.9157
lfingers 7.12502
lthumb 54.9187 37.113
rfemur -32.5357 18.3596 389.724
rtibia 45.1366
rfoot -37.8452 -22.4848
rtoes 3.16227
lfemur -81.4231 1.0183 -13.765
ltibia 70.7156
lfoot -28.0108 27.0603
ltoes 5.78264
